<svg xmlns="http://www.w3.org/2000/svg" xmlns:xlink="http://www.w3.org/1999/xlink" width="350" zoomAndPan="magnify" viewBox="0 0 262.5 56.249996" height="75" preserveAspectRatio="xMidYMid meet" version="1.0"><defs><g/><clipPath id="d82481f63a"><path d="M 55.5 16.203125 L 79.925781 16.203125 L 79.925781 40.628906 L 55.5 40.628906 Z M 55.5 16.203125 " clip-rule="nonzero"/></clipPath><clipPath id="7aee1c1579"><path d="M 139.023438 16.203125 L 163.542969 16.203125 L 163.542969 40.726562 L 139.023438 40.726562 Z M 139.023438 16.203125 " clip-rule="nonzero"/></clipPath><clipPath id="5c2e732b09"><path d="M 151.285156 16.203125 C 144.511719 16.203125 139.023438 21.695312 139.023438 28.464844 C 139.023438 35.234375 144.511719 40.726562 151.285156 40.726562 C 158.054688 40.726562 163.542969 35.234375 163.542969 28.464844 C 163.542969 21.695312 158.054688 16.203125 151.285156 16.203125 Z M 151.285156 16.203125 " clip-rule="nonzero"/></clipPath><clipPath id="e767634684"><path d="M 0.0234375 0.203125 L 24.542969 0.203125 L 24.542969 24.726562 L 0.0234375 24.726562 Z M 0.0234375 0.203125 " clip-rule="nonzero"/></clipPath><clipPath id="a9425851c4"><path d="M 12.285156 0.203125 C 5.511719 0.203125 0.0234375 5.695312 0.0234375 12.464844 C 0.0234375 19.234375 5.511719 24.726562 12.285156 24.726562 C 19.054688 24.726562 24.542969 19.234375 24.542969 12.464844 C 24.542969 5.695312 19.054688 0.203125 12.285156 0.203125 Z M 12.285156 0.203125 " clip-rule="nonzero"/></clipPath><clipPath id="e6677dfb37"><rect x="0" width="25" y="0" height="25"/></clipPath></defs><g fill="#0e0604" fill-opacity="1"><g transform="translate(35.520094, 39.793905)"><g><path d="M 17.625 0 L 12.859375 0 C 12.160156 0 11.441406 -0.0625 10.703125 -0.1875 C 9.972656 -0.320312 9.273438 -0.5625 8.609375 -0.90625 C 7.941406 -1.257812 7.34375 -1.765625 6.8125 -2.421875 C 6.289062 -3.085938 5.875 -3.945312 5.5625 -5 C 5.25 -6.050781 5.09375 -7.351562 5.09375 -8.90625 L 5.09375 -18.671875 L 0.25 -18.671875 L 0.25 -23.40625 L 5.09375 -23.40625 L 5.09375 -30.25 L 10.609375 -30.296875 L 10.609375 -23.40625 L 17.625 -23.40625 L 17.625 -18.671875 L 10.609375 -18.671875 L 10.609375 -8.65625 C 10.609375 -7.5625 10.765625 -6.71875 11.078125 -6.125 C 11.398438 -5.53125 11.820312 -5.125 12.34375 -4.90625 C 12.875 -4.6875 13.425781 -4.578125 14 -4.578125 L 17.625 -4.578125 Z M 17.625 0 "/></g></g></g><g fill="#0e0604" fill-opacity="1"><g transform="translate(52.508425, 39.793905)"><g/></g></g><g fill="#0e0604" fill-opacity="1"><g transform="translate(62.0042, 39.793905)"><g/></g></g><g fill="#0e0604" fill-opacity="1"><g transform="translate(71.499976, 39.793905)"><g/></g></g><g fill="#0e0604" fill-opacity="1"><g transform="translate(81.003487, 39.793905)"><g><path d="M 13.65625 0.703125 C 11.914062 0.703125 10.304688 0.378906 8.828125 -0.265625 C 7.359375 -0.910156 6.082031 -1.800781 5 -2.9375 C 3.914062 -4.070312 3.070312 -5.390625 2.46875 -6.890625 C 1.875 -8.398438 1.578125 -10.003906 1.578125 -11.703125 C 1.578125 -13.398438 1.875 -14.992188 2.46875 -16.484375 C 3.070312 -17.984375 3.914062 -19.304688 5 -20.453125 C 6.082031 -21.597656 7.359375 -22.492188 8.828125 -23.140625 C 10.304688 -23.785156 11.914062 -24.109375 13.65625 -24.109375 C 15.675781 -24.109375 17.476562 -23.71875 19.0625 -22.9375 C 20.65625 -22.15625 21.984375 -21.085938 23.046875 -19.734375 C 24.117188 -18.390625 24.875 -16.859375 25.3125 -15.140625 L 19.6875 -15.140625 C 19.175781 -16.441406 18.378906 -17.40625 17.296875 -18.03125 C 16.222656 -18.664062 15.019531 -18.984375 13.6875 -18.984375 C 12.832031 -18.984375 12.007812 -18.820312 11.21875 -18.5 C 10.4375 -18.175781 9.726562 -17.703125 9.09375 -17.078125 C 8.46875 -16.453125 7.96875 -15.6875 7.59375 -14.78125 C 7.21875 -13.882812 7.03125 -12.859375 7.03125 -11.703125 C 7.03125 -10.546875 7.21875 -9.515625 7.59375 -8.609375 C 7.96875 -7.710938 8.46875 -6.945312 9.09375 -6.3125 C 9.726562 -5.6875 10.441406 -5.207031 11.234375 -4.875 C 12.035156 -4.550781 12.851562 -4.390625 13.6875 -4.390625 C 15.019531 -4.390625 16.222656 -4.71875 17.296875 -5.375 C 18.378906 -6.039062 19.175781 -7.101562 19.6875 -8.5625 L 25.296875 -8.5625 C 24.898438 -6.75 24.160156 -5.144531 23.078125 -3.75 C 22.003906 -2.351562 20.664062 -1.257812 19.0625 -0.46875 C 17.46875 0.3125 15.664062 0.703125 13.65625 0.703125 Z M 13.65625 0.703125 "/></g></g></g><g fill="#0e0604" fill-opacity="1"><g transform="translate(105.662563, 39.793905)"><g><path d="M 5.9375 -27.046875 C 4.875 -27.046875 4.039062 -27.351562 3.4375 -27.96875 C 2.84375 -28.582031 2.546875 -29.328125 2.546875 -30.203125 C 2.546875 -31.054688 2.84375 -31.796875 3.4375 -32.421875 C 4.039062 -33.046875 4.882812 -33.359375 5.96875 -33.359375 C 7.070312 -33.359375 7.921875 -33.046875 8.515625 -32.421875 C 9.117188 -31.796875 9.421875 -31.054688 9.421875 -30.203125 C 9.421875 -29.328125 9.117188 -28.582031 8.515625 -27.96875 C 7.921875 -27.351562 7.0625 -27.046875 5.9375 -27.046875 Z M 8.75 0 L 3.234375 0 L 3.234375 -23.40625 L 8.75 -23.40625 Z M 8.75 0 "/></g></g></g><g fill="#0e0604" fill-opacity="1"><g transform="translate(115.750299, 39.793905)"><g><path d="M 14.6875 0 L 9.5625 0 L 0.234375 -23.40625 L 6.078125 -23.40625 L 11.515625 -9.265625 L 12.140625 -6.8125 L 12.71875 -9.25 L 18.171875 -23.40625 L 24.0625 -23.40625 Z M 14.6875 0 "/></g></g></g><g fill="#0e0604" fill-opacity="1"><g transform="translate(138.155517, 39.793905)"><g/></g></g><g fill="#0e0604" fill-opacity="1"><g transform="translate(147.651292, 39.793905)"><g/></g></g><g fill="#0e0604" fill-opacity="1"><g transform="translate(157.147068, 39.793905)"><g/></g></g><g fill="#0e0604" fill-opacity="1"><g transform="translate(166.650583, 39.793905)"><g><path d="M 27.90625 -30.96875 L 16.671875 -17.296875 L 29.640625 0 L 24.8125 0 L 14.03125 -14.34375 L 8.234375 -7.234375 L 8.234375 0 L 4.21875 0 L 4.21875 -30.96875 L 8.234375 -30.96875 L 8.234375 -12.609375 L 23.15625 -30.96875 Z M 27.90625 -30.96875 "/></g></g></g><g fill="#0e0604" fill-opacity="1"><g transform="translate(194.929725, 39.793905)"><g><path d="M 18.734375 0 L 4.21875 0 L 4.21875 -30.96875 L 17.4375 -30.96875 C 19.15625 -30.96875 20.675781 -30.625 22 -29.9375 C 23.332031 -29.25 24.375 -28.296875 25.125 -27.078125 C 25.882812 -25.859375 26.265625 -24.4375 26.265625 -22.8125 C 26.265625 -21.875 26.082031 -20.972656 25.71875 -20.109375 C 25.351562 -19.253906 24.863281 -18.5 24.25 -17.84375 C 23.632812 -17.195312 22.941406 -16.707031 22.171875 -16.375 C 23.265625 -16.050781 24.257812 -15.515625 25.15625 -14.765625 C 26.050781 -14.023438 26.757812 -13.140625 27.28125 -12.109375 C 27.8125 -11.078125 28.078125 -9.957031 28.078125 -8.75 C 28.078125 -7.34375 27.816406 -6.097656 27.296875 -5.015625 C 26.773438 -3.929688 26.078125 -3.015625 25.203125 -2.265625 C 24.335938 -1.523438 23.347656 -0.960938 22.234375 -0.578125 C 21.117188 -0.191406 19.953125 0 18.734375 0 Z M 8.28125 -27.453125 L 8.28125 -17.53125 L 17.25 -17.53125 C 18.175781 -17.53125 19.007812 -17.75 19.75 -18.1875 C 20.5 -18.625 21.09375 -19.222656 21.53125 -19.984375 C 21.976562 -20.742188 22.203125 -21.585938 22.203125 -22.515625 C 22.203125 -23.441406 21.976562 -24.273438 21.53125 -25.015625 C 21.09375 -25.765625 20.5 -26.359375 19.75 -26.796875 C 19.007812 -27.234375 18.1875 -27.453125 17.28125 -27.453125 Z M 8.28125 -14.40625 L 8.28125 -3.546875 L 18.421875 -3.546875 C 19.453125 -3.546875 20.382812 -3.785156 21.21875 -4.265625 C 22.050781 -4.742188 22.707031 -5.394531 23.1875 -6.21875 C 23.675781 -7.050781 23.921875 -7.988281 23.921875 -9.03125 C 23.921875 -10.019531 23.675781 -10.921875 23.1875 -11.734375 C 22.707031 -12.546875 22.054688 -13.191406 21.234375 -13.671875 C 20.421875 -14.160156 19.5 -14.40625 18.46875 -14.40625 Z M 8.28125 -14.40625 "/></g></g></g><g clip-path="url(#d82481f63a)"><path fill="#0e0604" d="M 67.757812 16.203125 C 60.988281 16.203125 55.5 21.691406 55.5 28.460938 C 55.5 35.234375 60.988281 40.722656 67.757812 40.722656 L 80.015625 40.722656 L 80.015625 28.460938 C 80.015625 21.691406 74.527344 16.203125 67.757812 16.203125 Z M 67.757812 16.203125 " fill-opacity="1" fill-rule="nonzero"/></g><g clip-path="url(#7aee1c1579)"><g clip-path="url(#5c2e732b09)"><g transform="matrix(1, 0, 0, 1, 139, 16)"><g clip-path="url(#e6677dfb37)"><g clip-path="url(#e767634684)"><g clip-path="url(#a9425851c4)"><path fill="#0e0604" d="M 0.0234375 0.203125 L 24.542969 0.203125 L 24.542969 24.726562 L 0.0234375 24.726562 Z M 0.0234375 0.203125 " fill-opacity="1" fill-rule="nonzero"/></g></g></g></g></g></g></svg>