<svg xmlns="http://www.w3.org/2000/svg" xmlns:xlink="http://www.w3.org/1999/xlink" width="350" zoomAndPan="magnify" viewBox="0 0 262.5 56.249996" height="75" preserveAspectRatio="xMidYMid meet" version="1.0"><defs><g/><clipPath id="962e023b60"><path d="M 0.375 4 L 19 4 L 19 35 L 0.375 35 Z M 0.375 4 " clip-rule="nonzero"/></clipPath><clipPath id="da65251c71"><rect x="0" width="106" y="0" height="43"/></clipPath><clipPath id="63b8df5853"><path d="M 86.371094 16.203125 L 110.796875 16.203125 L 110.796875 40.628906 L 86.371094 40.628906 Z M 86.371094 16.203125 " clip-rule="nonzero"/></clipPath><clipPath id="e05a2b506e"><path d="M 169.894531 16.203125 L 194.414062 16.203125 L 194.414062 40.726562 L 169.894531 40.726562 Z M 169.894531 16.203125 " clip-rule="nonzero"/></clipPath><clipPath id="80b95cdfcf"><path d="M 182.15625 16.203125 C 175.382812 16.203125 169.894531 21.695312 169.894531 28.464844 C 169.894531 35.234375 175.382812 40.726562 182.15625 40.726562 C 188.925781 40.726562 194.414062 35.234375 194.414062 28.464844 C 194.414062 21.695312 188.925781 16.203125 182.15625 16.203125 Z M 182.15625 16.203125 " clip-rule="nonzero"/></clipPath><clipPath id="00d15bd1cc"><path d="M 0.894531 0.203125 L 25.414062 0.203125 L 25.414062 24.726562 L 0.894531 24.726562 Z M 0.894531 0.203125 " clip-rule="nonzero"/></clipPath><clipPath id="15f3e43f1f"><path d="M 13.15625 0.203125 C 6.382812 0.203125 0.894531 5.695312 0.894531 12.464844 C 0.894531 19.234375 6.382812 24.726562 13.15625 24.726562 C 19.925781 24.726562 25.414062 19.234375 25.414062 12.464844 C 25.414062 5.695312 19.925781 0.203125 13.15625 0.203125 Z M 13.15625 0.203125 " clip-rule="nonzero"/></clipPath><clipPath id="aae629fc7d"><rect x="0" width="26" y="0" height="25"/></clipPath></defs><g transform="matrix(1, 0, 0, 1, 66, 5)"><g clip-path="url(#da65251c71)"><g clip-path="url(#962e023b60)"><g fill="#0e0604" fill-opacity="1"><g transform="translate(0.391228, 34.573398)"><g><path d="M 17.625 0 L 12.859375 0 C 12.160156 0 11.441406 -0.0625 10.703125 -0.1875 C 9.972656 -0.320312 9.273438 -0.5625 8.609375 -0.90625 C 7.941406 -1.257812 7.34375 -1.765625 6.8125 -2.421875 C 6.289062 -3.085938 5.875 -3.945312 5.5625 -5 C 5.25 -6.050781 5.09375 -7.351562 5.09375 -8.90625 L 5.09375 -18.671875 L 0.25 -18.671875 L 0.25 -23.40625 L 5.09375 -23.40625 L 5.09375 -30.25 L 10.609375 -30.296875 L 10.609375 -23.40625 L 17.625 -23.40625 L 17.625 -18.671875 L 10.609375 -18.671875 L 10.609375 -8.65625 C 10.609375 -7.5625 10.765625 -6.71875 11.078125 -6.125 C 11.398438 -5.53125 11.820312 -5.125 12.34375 -4.90625 C 12.875 -4.6875 13.425781 -4.578125 14 -4.578125 L 17.625 -4.578125 Z M 17.625 0 "/></g></g></g></g><g fill="#0e0604" fill-opacity="1"><g transform="translate(17.380278, 34.573398)"><g/></g></g><g fill="#0e0604" fill-opacity="1"><g transform="translate(26.874697, 34.573398)"><g/></g></g><g fill="#0e0604" fill-opacity="1"><g transform="translate(36.369116, 34.573398)"><g/></g></g><g fill="#0e0604" fill-opacity="1"><g transform="translate(45.867065, 34.573398)"><g><path d="M 13.65625 0.703125 C 11.914062 0.703125 10.304688 0.378906 8.828125 -0.265625 C 7.359375 -0.910156 6.082031 -1.800781 5 -2.9375 C 3.914062 -4.070312 3.070312 -5.390625 2.46875 -6.890625 C 1.875 -8.398438 1.578125 -10.003906 1.578125 -11.703125 C 1.578125 -13.398438 1.875 -14.992188 2.46875 -16.484375 C 3.070312 -17.984375 3.914062 -19.304688 5 -20.453125 C 6.082031 -21.597656 7.359375 -22.492188 8.828125 -23.140625 C 10.304688 -23.785156 11.914062 -24.109375 13.65625 -24.109375 C 15.675781 -24.109375 17.476562 -23.71875 19.0625 -22.9375 C 20.65625 -22.15625 21.984375 -21.085938 23.046875 -19.734375 C 24.117188 -18.390625 24.875 -16.859375 25.3125 -15.140625 L 19.6875 -15.140625 C 19.175781 -16.441406 18.378906 -17.40625 17.296875 -18.03125 C 16.222656 -18.664062 15.019531 -18.984375 13.6875 -18.984375 C 12.832031 -18.984375 12.007812 -18.820312 11.21875 -18.5 C 10.4375 -18.175781 9.726562 -17.703125 9.09375 -17.078125 C 8.46875 -16.453125 7.96875 -15.6875 7.59375 -14.78125 C 7.21875 -13.882812 7.03125 -12.859375 7.03125 -11.703125 C 7.03125 -10.546875 7.21875 -9.515625 7.59375 -8.609375 C 7.96875 -7.710938 8.46875 -6.945312 9.09375 -6.3125 C 9.726562 -5.6875 10.441406 -5.207031 11.234375 -4.875 C 12.035156 -4.550781 12.851562 -4.390625 13.6875 -4.390625 C 15.019531 -4.390625 16.222656 -4.71875 17.296875 -5.375 C 18.378906 -6.039062 19.175781 -7.101562 19.6875 -8.5625 L 25.296875 -8.5625 C 24.898438 -6.75 24.160156 -5.144531 23.078125 -3.75 C 22.003906 -2.351562 20.664062 -1.257812 19.0625 -0.46875 C 17.46875 0.3125 15.664062 0.703125 13.65625 0.703125 Z M 13.65625 0.703125 "/></g></g></g><g fill="#0e0604" fill-opacity="1"><g transform="translate(70.522966, 34.573398)"><g><path d="M 5.9375 -27.046875 C 4.875 -27.046875 4.039062 -27.351562 3.4375 -27.96875 C 2.84375 -28.582031 2.546875 -29.328125 2.546875 -30.203125 C 2.546875 -31.054688 2.84375 -31.796875 3.4375 -32.421875 C 4.039062 -33.046875 4.882812 -33.359375 5.96875 -33.359375 C 7.070312 -33.359375 7.921875 -33.046875 8.515625 -32.421875 C 9.117188 -31.796875 9.421875 -31.054688 9.421875 -30.203125 C 9.421875 -29.328125 9.117188 -28.582031 8.515625 -27.96875 C 7.921875 -27.351562 7.0625 -27.046875 5.9375 -27.046875 Z M 8.75 0 L 3.234375 0 L 3.234375 -23.40625 L 8.75 -23.40625 Z M 8.75 0 "/></g></g></g><g fill="#0e0604" fill-opacity="1"><g transform="translate(80.609275, 34.573398)"><g><path d="M 14.6875 0 L 9.5625 0 L 0.234375 -23.40625 L 6.078125 -23.40625 L 11.515625 -9.265625 L 12.140625 -6.8125 L 12.71875 -9.25 L 18.171875 -23.40625 L 24.0625 -23.40625 Z M 14.6875 0 "/></g></g></g></g></g><g clip-path="url(#63b8df5853)"><path fill="#0e0604" d="M 98.628906 16.203125 C 91.859375 16.203125 86.371094 21.691406 86.371094 28.460938 C 86.371094 35.234375 91.859375 40.722656 98.628906 40.722656 L 110.886719 40.722656 L 110.886719 28.460938 C 110.886719 21.691406 105.398438 16.203125 98.628906 16.203125 Z M 98.628906 16.203125 " fill-opacity="1" fill-rule="nonzero"/></g><g clip-path="url(#e05a2b506e)"><g clip-path="url(#80b95cdfcf)"><g transform="matrix(1, 0, 0, 1, 169, 16)"><g clip-path="url(#aae629fc7d)"><g clip-path="url(#00d15bd1cc)"><g clip-path="url(#15f3e43f1f)"><path fill="#0e0604" d="M 0.894531 0.203125 L 25.414062 0.203125 L 25.414062 24.726562 L 0.894531 24.726562 Z M 0.894531 0.203125 " fill-opacity="1" fill-rule="nonzero"/></g></g></g></g></g></g></svg>