<svg xmlns="http://www.w3.org/2000/svg" xmlns:xlink="http://www.w3.org/1999/xlink" width="500" zoomAndPan="magnify" viewBox="0 0 375 374.999991" height="500" preserveAspectRatio="xMidYMid meet" version="1.0"><defs><clipPath id="7994962bbc"><path d="M 54.566406 117.285156 L 194.816406 117.285156 L 194.816406 257.535156 L 54.566406 257.535156 Z M 54.566406 117.285156 " clip-rule="nonzero"/></clipPath><clipPath id="808494232e"><path d="M 180 117.285156 L 320.433594 117.285156 L 320.433594 257.714844 L 180 257.714844 Z M 180 117.285156 " clip-rule="nonzero"/></clipPath><clipPath id="826c12d508"><path d="M 250.214844 117.285156 C 211.4375 117.285156 180 148.722656 180 187.5 C 180 226.277344 211.4375 257.714844 250.214844 257.714844 C 288.996094 257.714844 320.433594 226.277344 320.433594 187.5 C 320.433594 148.722656 288.996094 117.285156 250.214844 117.285156 Z M 250.214844 117.285156 " clip-rule="nonzero"/></clipPath><clipPath id="1e0ae65125"><path d="M 0 0.285156 L 140.433594 0.285156 L 140.433594 140.714844 L 0 140.714844 Z M 0 0.285156 " clip-rule="nonzero"/></clipPath><clipPath id="627233f437"><path d="M 70.214844 0.285156 C 31.4375 0.285156 0 31.722656 0 70.5 C 0 109.277344 31.4375 140.714844 70.214844 140.714844 C 108.996094 140.714844 140.433594 109.277344 140.433594 70.5 C 140.433594 31.722656 108.996094 0.285156 70.214844 0.285156 Z M 70.214844 0.285156 " clip-rule="nonzero"/></clipPath><clipPath id="29ff6ac441"><rect x="0" width="141" y="0" height="141"/></clipPath></defs><g clip-path="url(#7994962bbc)"><path fill="#fff9f2" d="M 124.78125 117.285156 C 86.003906 117.285156 54.570312 148.71875 54.570312 187.496094 C 54.570312 226.273438 86.003906 257.710938 124.78125 257.710938 L 194.992188 257.710938 L 194.992188 187.496094 C 194.992188 148.71875 163.554688 117.285156 124.78125 117.285156 Z M 124.78125 117.285156 " fill-opacity="1" fill-rule="nonzero"/></g><g clip-path="url(#808494232e)"><g clip-path="url(#826c12d508)"><g transform="matrix(1, 0, 0, 1, 180, 117)"><g clip-path="url(#29ff6ac441)"><g clip-path="url(#1e0ae65125)"><g clip-path="url(#627233f437)"><path fill="#fff9f2" d="M 0 0.285156 L 140.433594 0.285156 L 140.433594 140.714844 L 0 140.714844 Z M 0 0.285156 " fill-opacity="1" fill-rule="nonzero"/></g></g></g></g></g></g></svg>